<?xml version="1.0" encoding="UTF-8"?>
<svg width="336px" height="81px" viewBox="0 0 336 81" version="1.1" xmlns="http://www.w3.org/2000/svg" xmlns:xlink="http://www.w3.org/1999/xlink">
    <title>cam</title>
    <g id="cam" stroke="none" stroke-width="1" fill="none" fill-rule="evenodd">
        <polygon id="Path-36" stroke="#979797" fill="#D8D8D8" stroke-linejoin="round" points="14.5 58.5 74 28 106.5 37"></polygon>
        <polygon id="Path-37" stroke="#979797" fill="#FF7200" stroke-linejoin="round" points="14.5 58.5 107 37 105 70"></polygon>
        <polygon id="Path-38" stroke="#979797" fill="#D8D8D8" stroke-linejoin="round" points="78 26.5 89 9.5 100.5 32.5"></polygon>
        <polygon id="Path-39" stroke="#979797" fill="#54A92A" stroke-linejoin="round" points="238 41.5 268.5 22.5 267.5 62.5 237 74.5"></polygon>
        <polygon id="Path-40" stroke="#979797" fill="#FF0000" stroke-linejoin="round" points="268.5 22.5 322.5 62.5 267.5 62.5"></polygon>
        <polygon id="Path-41" stroke="#979797" fill="#FFB400" stroke-linejoin="round" points="237 74.5 267.5 62.5 322.5 62.5"></polygon>
        <polygon id="Path-42" stroke="#979797" fill="#D8D8D8" stroke-linejoin="round" points="242.5 35.5 263 22.5 252.5 8.5"></polygon>
        <path d="M143.828,18.18 C144.964,18.18 145.884,17.862 146.588,17.226 C147.292,16.59 147.676,15.74 147.74,14.676 L147.74,14.676 L145.508,14.676 C145.396,15.732 144.82,16.26 143.78,16.26 C143.18,16.26 142.698,16.036 142.334,15.588 C141.97,15.14 141.788,14.516 141.788,13.716 C141.788,12.924 141.97,12.302 142.334,11.85 C142.698,11.398 143.18,11.172 143.78,11.172 C144.788,11.172 145.364,11.612 145.508,12.492 L145.508,12.492 L147.74,12.492 C147.708,11.852 147.51,11.284 147.146,10.788 C146.782,10.292 146.306,9.912 145.718,9.648 C145.13,9.384 144.5,9.252 143.828,9.252 C142.996,9.252 142.252,9.448 141.596,9.84 C140.94,10.232 140.436,10.768 140.084,11.448 C139.732,12.128 139.556,12.884 139.556,13.716 C139.556,15.02 139.96,16.09 140.768,16.926 C141.576,17.762 142.596,18.18 143.828,18.18 Z M150.632,18.18 C151.52,18.18 152.204,17.924 152.684,17.412 C152.724,17.74 152.764,17.936 152.804,18 L152.804,18 L154.856,18 C154.696,17.68 154.616,17.252 154.616,16.716 L154.616,16.716 L154.616,13.644 C154.616,12.94 154.378,12.422 153.902,12.09 C153.426,11.758 152.696,11.592 151.712,11.592 C149.824,11.592 148.84,12.292 148.76,13.692 L148.76,13.692 L150.668,13.692 C150.764,13.172 151.104,12.912 151.688,12.912 C151.952,12.912 152.182,12.968 152.378,13.08 C152.574,13.192 152.672,13.352 152.672,13.56 C152.672,13.784 152.6,13.936 152.456,14.016 C152.312,14.096 152.092,14.156 151.796,14.196 L151.796,14.196 L150.356,14.424 C149.124,14.648 148.508,15.272 148.508,16.296 C148.508,16.88 148.692,17.34 149.06,17.676 C149.428,18.012 149.952,18.18 150.632,18.18 Z M151.412,16.92 C150.836,16.92 150.548,16.684 150.548,16.212 C150.548,15.804 150.828,15.54 151.388,15.42 C152.156,15.252 152.576,15.14 152.648,15.084 L152.648,15.084 L152.648,15.324 C152.648,15.892 152.554,16.3 152.366,16.548 C152.178,16.796 151.86,16.92 151.412,16.92 Z M158,18 L158,14.892 C158,14.348 158.076,13.942 158.228,13.674 C158.38,13.406 158.648,13.272 159.032,13.272 C159.552,13.272 159.812,13.652 159.812,14.412 L159.812,14.412 L159.812,18 L161.852,18 L161.852,14.856 C161.852,14.528 161.878,14.242 161.93,13.998 C161.982,13.754 162.074,13.572 162.206,13.452 C162.338,13.332 162.54,13.272 162.812,13.272 C163.068,13.272 163.274,13.362 163.43,13.542 C163.586,13.722 163.664,13.976 163.664,14.304 L163.664,14.304 L163.664,18 L165.704,18 L165.704,14.22 C165.704,13.34 165.53,12.682 165.182,12.246 C164.834,11.81 164.28,11.592 163.52,11.592 C162.688,11.592 162.036,11.928 161.564,12.6 C161.252,11.928 160.652,11.592 159.764,11.592 C159.388,11.592 159.042,11.686 158.726,11.874 C158.41,12.062 158.156,12.312 157.964,12.624 L157.964,12.624 L157.94,12.624 L157.94,11.772 L155.96,11.772 L155.96,18 L158,18 Z M170.18,18.18 C170.94,18.18 171.6,18.006 172.16,17.658 C172.72,17.31 173.092,16.796 173.276,16.116 L173.276,16.116 L171.368,16.116 C171.28,16.324 171.132,16.49 170.924,16.614 C170.716,16.738 170.476,16.8 170.204,16.8 C169.796,16.8 169.468,16.678 169.22,16.434 C168.972,16.19 168.836,15.84 168.812,15.384 L168.812,15.384 L173.384,15.384 L173.384,15.132 C173.384,14.036 173.088,13.172 172.496,12.54 C171.904,11.908 171.116,11.592 170.132,11.592 C169.196,11.592 168.402,11.904 167.75,12.528 C167.098,13.152 166.772,13.932 166.772,14.868 C166.772,15.884 167.082,16.69 167.702,17.286 C168.322,17.882 169.148,18.18 170.18,18.18 Z M171.344,14.244 L168.812,14.244 C168.876,13.844 169.024,13.532 169.256,13.308 C169.488,13.084 169.776,12.972 170.12,12.972 C170.472,12.972 170.758,13.094 170.978,13.338 C171.198,13.582 171.32,13.884 171.344,14.244 L171.344,14.244 Z M176.516,18 L176.516,14.88 C176.516,14.464 176.662,14.12 176.954,13.848 C177.246,13.576 177.612,13.44 178.052,13.44 C178.252,13.44 178.512,13.48 178.832,13.56 L178.832,13.56 L178.832,11.7 C178.688,11.668 178.528,11.652 178.352,11.652 C177.896,11.652 177.504,11.758 177.176,11.97 C176.848,12.182 176.616,12.48 176.48,12.864 L176.48,12.864 L176.456,12.864 L176.456,11.772 L174.476,11.772 L174.476,18 L176.516,18 Z M181.304,18.18 C182.192,18.18 182.876,17.924 183.356,17.412 C183.396,17.74 183.436,17.936 183.476,18 L183.476,18 L185.528,18 C185.368,17.68 185.288,17.252 185.288,16.716 L185.288,16.716 L185.288,13.644 C185.288,12.94 185.05,12.422 184.574,12.09 C184.098,11.758 183.368,11.592 182.384,11.592 C180.496,11.592 179.512,12.292 179.432,13.692 L179.432,13.692 L181.34,13.692 C181.436,13.172 181.776,12.912 182.36,12.912 C182.624,12.912 182.854,12.968 183.05,13.08 C183.246,13.192 183.344,13.352 183.344,13.56 C183.344,13.784 183.272,13.936 183.128,14.016 C182.984,14.096 182.764,14.156 182.468,14.196 L182.468,14.196 L181.028,14.424 C179.796,14.648 179.18,15.272 179.18,16.296 C179.18,16.88 179.364,17.34 179.732,17.676 C180.1,18.012 180.624,18.18 181.304,18.18 Z M182.084,16.92 C181.508,16.92 181.22,16.684 181.22,16.212 C181.22,15.804 181.5,15.54 182.06,15.42 C182.828,15.252 183.248,15.14 183.32,15.084 L183.32,15.084 L183.32,15.324 C183.32,15.892 183.226,16.3 183.038,16.548 C182.85,16.796 182.532,16.92 182.084,16.92 Z" id="Camera" fill="#000000" fill-rule="nonzero"></path>
        <path d="M162.224,56 L162.224,49.598 L164.578,49.598 L164.578,48.146 L158.143,48.146 L158.143,49.598 L160.497,49.598 L160.497,56 L162.224,56 Z M166.877,56 L166.877,53.019 C166.877,52.4396667 166.974167,52.0235 167.1685,51.7705 C167.362833,51.5175 167.669,51.391 168.087,51.391 C168.453667,51.391 168.712167,51.5046667 168.8625,51.732 C169.012833,51.9593333 169.088,52.304 169.088,52.766 L169.088,52.766 L169.088,56 L170.65,56 L170.65,52.447 C170.65,51.655 170.486833,51.0756667 170.1605,50.709 C169.834167,50.3423333 169.308,50.159 168.582,50.159 C168.244667,50.159 167.925667,50.2433333 167.625,50.412 C167.324333,50.5806667 167.086,50.8116667 166.91,51.105 L166.91,51.105 L166.877,51.105 L166.877,48.146 L165.315,48.146 L165.315,56 L166.877,56 Z M174.467,56.154 C175.838333,56.154 176.725667,55.516 177.129,54.24 L177.129,54.24 L175.754,54.24 C175.688,54.4453333 175.535833,54.6195 175.2975,54.7625 C175.059167,54.9055 174.797,54.977 174.511,54.977 C174.049,54.977 173.706167,54.8505 173.4825,54.5975 C173.258833,54.3445 173.139667,53.9906667 173.125,53.536 L173.125,53.536 L177.228,53.536 C177.235333,53.404 177.239,53.3086667 177.239,53.25 C177.239,52.634 177.119833,52.0895 176.8815,51.6165 C176.643167,51.1435 176.315,50.7823333 175.897,50.533 C175.479,50.2836667 175.002333,50.159 174.467,50.159 C173.953667,50.159 173.475167,50.2763333 173.0315,50.511 C172.587833,50.7456667 172.232167,51.1013333 171.9645,51.578 C171.696833,52.0546667 171.563,52.5826667 171.563,53.162 C171.563,53.778 171.695,54.3188333 171.959,54.7845 C172.223,55.2501667 172.576833,55.593 173.0205,55.813 C173.464167,56.033 173.946333,56.1466667 174.467,56.154 Z M175.666,52.546 L173.125,52.546 C173.161667,52.172 173.29,51.8768333 173.51,51.6605 C173.73,51.4441667 174.030667,51.336 174.412,51.336 C174.778667,51.336 175.061,51.4313333 175.259,51.622 C175.457,51.8126667 175.592667,52.1206667 175.666,52.546 L175.666,52.546 Z M182.772,51.677 L182.772,49.983 L182.046,49.983 C182.046,49.675 182.102833,49.4348333 182.2165,49.2625 C182.330167,49.0901667 182.515333,48.96 182.772,48.872 L182.772,48.872 L182.772,48.146 C182.324667,48.1973333 181.9525,48.3916667 181.6555,48.729 C181.3585,49.0663333 181.21,49.4623333 181.21,49.917 L181.21,49.917 L181.21,51.677 L182.772,51.677 Z M185.115,51.677 L185.115,49.983 L184.389,49.983 C184.389,49.6896667 184.444,49.4531667 184.554,49.2735 C184.664,49.0938333 184.851,48.96 185.115,48.872 L185.115,48.872 L185.115,48.146 C184.667667,48.1973333 184.2955,48.3916667 183.9985,48.729 C183.7015,49.0663333 183.553,49.4623333 183.553,49.917 L183.553,49.917 L183.553,51.677 L185.115,51.677 Z M187.909,56 L187.909,48.146 L186.347,48.146 L186.347,56 L187.909,56 Z M191.77,56.154 C193.141333,56.154 194.028667,55.516 194.432,54.24 L194.432,54.24 L193.057,54.24 C192.991,54.4453333 192.838833,54.6195 192.6005,54.7625 C192.362167,54.9055 192.1,54.977 191.814,54.977 C191.352,54.977 191.009167,54.8505 190.7855,54.5975 C190.561833,54.3445 190.442667,53.9906667 190.428,53.536 L190.428,53.536 L194.531,53.536 C194.538333,53.404 194.542,53.3086667 194.542,53.25 C194.542,52.634 194.422833,52.0895 194.1845,51.6165 C193.946167,51.1435 193.618,50.7823333 193.2,50.533 C192.782,50.2836667 192.305333,50.159 191.77,50.159 C191.256667,50.159 190.778167,50.2763333 190.3345,50.511 C189.890833,50.7456667 189.535167,51.1013333 189.2675,51.578 C188.999833,52.0546667 188.866,52.5826667 188.866,53.162 C188.866,53.778 188.998,54.3188333 189.262,54.7845 C189.526,55.2501667 189.879833,55.593 190.3235,55.813 C190.767167,56.033 191.249333,56.1466667 191.77,56.154 Z M192.969,52.546 L190.428,52.546 C190.464667,52.172 190.593,51.8768333 190.813,51.6605 C191.033,51.4441667 191.333667,51.336 191.715,51.336 C192.081667,51.336 192.364,51.4313333 192.562,51.622 C192.76,51.8126667 192.895667,52.1206667 192.969,52.546 L192.969,52.546 Z M197.017,56 L197.017,53.041 C197.017,52.4543333 197.112333,52.0326667 197.303,51.776 C197.493667,51.5193333 197.801667,51.391 198.227,51.391 C198.593667,51.391 198.852167,51.5046667 199.0025,51.732 C199.152833,51.9593333 199.228,52.3076667 199.228,52.777 L199.228,52.777 L199.228,56 L200.79,56 L200.79,52.458 C200.79,51.6586667 200.626833,51.0756667 200.3005,50.709 C199.974167,50.3423333 199.448,50.159 198.722,50.159 C197.944667,50.159 197.361667,50.4743333 196.973,51.105 L196.973,51.105 L196.94,51.105 L196.94,50.313 L195.455,50.313 L195.455,56 L197.017,56 Z M204.376,56.154 C205.175333,56.154 205.807833,55.9835 206.2735,55.6425 C206.739167,55.3015 206.972,54.812 206.972,54.174 C206.972,53.8733333 206.904167,53.6203333 206.7685,53.415 C206.632833,53.2096667 206.418333,53.0336667 206.125,52.887 C205.831667,52.7403333 205.329333,52.5973333 204.618,52.458 C204.383333,52.414 204.168833,52.359 203.9745,52.293 C203.780167,52.227 203.635333,52.15 203.54,52.062 C203.444667,51.974 203.397,51.864 203.397,51.732 C203.397,51.556 203.4685,51.424 203.6115,51.336 C203.7545,51.248 203.972667,51.204 204.266,51.204 C204.603333,51.204 204.86,51.2645 205.036,51.3855 C205.212,51.5065 205.311,51.7026667 205.333,51.974 L205.333,51.974 L206.818,51.974 C206.766667,51.38 206.5265,50.929 206.0975,50.621 C205.6685,50.313 205.072667,50.159 204.31,50.159 C203.76,50.159 203.299833,50.2305 202.9295,50.3735 C202.559167,50.5165 202.284167,50.7273333 202.1045,51.006 C201.924833,51.2846667 201.835,51.611 201.835,51.985 C201.835,52.2783333 201.910167,52.5258333 202.0605,52.7275 C202.210833,52.9291667 202.429,53.0923333 202.715,53.217 C203.001,53.3416667 203.327333,53.4406667 203.694,53.514 C204.156,53.6093333 204.497,53.6936667 204.717,53.767 C204.937,53.8403333 205.1075,53.9246667 205.2285,54.02 C205.3495,54.1153333 205.41,54.2363333 205.41,54.383 C205.41,54.6103333 205.312833,54.7881667 205.1185,54.9165 C204.924167,55.0448333 204.680333,55.109 204.387,55.109 C204.042333,55.109 203.756333,55.0228333 203.529,54.8505 C203.301667,54.6781667 203.188,54.4453333 203.188,54.152 L203.188,54.152 L201.703,54.152 C201.717667,54.768 201.957833,55.2556667 202.4235,55.615 C202.889167,55.9743333 203.54,56.154 204.376,56.154 Z M207.885,51.677 C208.347,51.6183333 208.722833,51.4203333 209.0125,51.083 C209.302167,50.7456667 209.447,50.357 209.447,49.917 L209.447,49.917 L209.447,48.146 L207.885,48.146 L207.885,49.84 L208.611,49.84 C208.611,50.1626667 208.5505,50.4083333 208.4295,50.577 C208.3085,50.7456667 208.127,50.8703333 207.885,50.951 L207.885,50.951 L207.885,51.677 Z M210.228,51.677 C210.668,51.6183333 211.038333,51.4258333 211.339,51.0995 C211.639667,50.7731667 211.79,50.3716667 211.79,49.895 L211.79,49.895 L211.79,48.146 L210.228,48.146 L210.228,49.84 L210.954,49.84 C210.954,50.1553333 210.895333,50.3991667 210.778,50.5715 C210.660667,50.7438333 210.477333,50.8703333 210.228,50.951 L210.228,50.951 L210.228,51.677 Z M217.642,49.433 L217.642,48.146 L216.08,48.146 L216.08,49.433 L217.642,49.433 Z M217.642,56 L217.642,50.313 L216.08,50.313 L216.08,56 L217.642,56 Z M221.272,56.154 C222.071333,56.154 222.703833,55.9835 223.1695,55.6425 C223.635167,55.3015 223.868,54.812 223.868,54.174 C223.868,53.8733333 223.800167,53.6203333 223.6645,53.415 C223.528833,53.2096667 223.314333,53.0336667 223.021,52.887 C222.727667,52.7403333 222.225333,52.5973333 221.514,52.458 C221.279333,52.414 221.064833,52.359 220.8705,52.293 C220.676167,52.227 220.531333,52.15 220.436,52.062 C220.340667,51.974 220.293,51.864 220.293,51.732 C220.293,51.556 220.3645,51.424 220.5075,51.336 C220.6505,51.248 220.868667,51.204 221.162,51.204 C221.499333,51.204 221.756,51.2645 221.932,51.3855 C222.108,51.5065 222.207,51.7026667 222.229,51.974 L222.229,51.974 L223.714,51.974 C223.662667,51.38 223.4225,50.929 222.9935,50.621 C222.5645,50.313 221.968667,50.159 221.206,50.159 C220.656,50.159 220.195833,50.2305 219.8255,50.3735 C219.455167,50.5165 219.180167,50.7273333 219.0005,51.006 C218.820833,51.2846667 218.731,51.611 218.731,51.985 C218.731,52.2783333 218.806167,52.5258333 218.9565,52.7275 C219.106833,52.9291667 219.325,53.0923333 219.611,53.217 C219.897,53.3416667 220.223333,53.4406667 220.59,53.514 C221.052,53.6093333 221.393,53.6936667 221.613,53.767 C221.833,53.8403333 222.0035,53.9246667 222.1245,54.02 C222.2455,54.1153333 222.306,54.2363333 222.306,54.383 C222.306,54.6103333 222.208833,54.7881667 222.0145,54.9165 C221.820167,55.0448333 221.576333,55.109 221.283,55.109 C220.938333,55.109 220.652333,55.0228333 220.425,54.8505 C220.197667,54.6781667 220.084,54.4453333 220.084,54.152 L220.084,54.152 L218.599,54.152 C218.613667,54.768 218.853833,55.2556667 219.3195,55.615 C219.785167,55.9743333 220.436,56.154 221.272,56.154 Z M160.288,67.154 C161.102,67.154 161.74,66.9193333 162.202,66.45 C162.216667,66.6406667 162.253333,66.824 162.312,67 L162.312,67 L163.896,67 C163.764,66.7506667 163.698,66.3473333 163.698,65.79 L163.698,65.79 L163.698,62.776 C163.698,61.7053333 162.869333,61.1663333 161.212,61.159 C160.412667,61.159 159.774667,61.3203333 159.298,61.643 C158.821333,61.9656667 158.564667,62.4386667 158.528,63.062 L158.528,63.062 L160.09,63.062 C160.119333,62.7613333 160.218333,62.5431667 160.387,62.4075 C160.555667,62.2718333 160.805,62.204 161.135,62.204 C161.494333,62.204 161.751,62.2663333 161.905,62.391 C162.059,62.5156667 162.136,62.7063333 162.136,62.963 C162.136,63.1683333 162.051667,63.3205 161.883,63.4195 C161.714333,63.5185 161.314667,63.601 160.684,63.667 C159.796667,63.7476667 159.184333,63.9383333 158.847,64.239 C158.517,64.525 158.352,64.9283333 158.352,65.449 C158.352,65.9843333 158.526167,66.4023333 158.8745,66.703 C159.222833,67.0036667 159.694,67.154 160.288,67.154 Z M160.871,66.109 C160.233,66.109 159.914,65.867 159.914,65.383 C159.914,65.097 160.016667,64.8898333 160.222,64.7615 C160.427333,64.6331667 160.75,64.5433333 161.19,64.492 C161.696,64.4333333 162.011333,64.3416667 162.136,64.217 L162.136,64.217 L162.136,64.822 C162.128667,65.6726667 161.707,66.1016667 160.871,66.109 Z M167.108,67.066 C167.504,67.066 167.812,67.0476667 168.032,67.011 L168.032,67.011 L168.032,65.79 C167.9,65.8193333 167.738667,65.834 167.548,65.834 C167.284,65.834 167.108,65.79 167.02,65.702 C166.932,65.614 166.888,65.438 166.888,65.174 L166.888,65.174 L166.888,62.358 L168.032,62.358 L168.032,61.313 L166.888,61.313 L166.888,59.608 L165.326,59.608 L165.326,61.313 L164.38,61.313 L164.38,62.358 L165.326,62.358 L165.326,65.691 C165.326,66.197 165.472667,66.5526667 165.766,66.758 C166.059333,66.9633333 166.506667,67.066 167.108,67.066 Z M174.038,67.066 C174.434,67.066 174.742,67.0476667 174.962,67.011 L174.962,67.011 L174.962,65.79 C174.83,65.8193333 174.668667,65.834 174.478,65.834 C174.214,65.834 174.038,65.79 173.95,65.702 C173.862,65.614 173.818,65.438 173.818,65.174 L173.818,65.174 L173.818,62.358 L174.962,62.358 L174.962,61.313 L173.818,61.313 L173.818,59.608 L172.256,59.608 L172.256,61.313 L171.31,61.313 L171.31,62.358 L172.256,62.358 L172.256,65.691 C172.256,66.197 172.402667,66.5526667 172.696,66.758 C172.989333,66.9633333 173.436667,67.066 174.038,67.066 Z M177.272,67 L177.272,64.019 C177.272,63.4396667 177.369167,63.0235 177.5635,62.7705 C177.757833,62.5175 178.064,62.391 178.482,62.391 C178.848667,62.391 179.107167,62.5046667 179.2575,62.732 C179.407833,62.9593333 179.483,63.304 179.483,63.766 L179.483,63.766 L179.483,67 L181.045,67 L181.045,63.447 C181.045,62.655 180.881833,62.0756667 180.5555,61.709 C180.229167,61.3423333 179.703,61.159 178.977,61.159 C178.639667,61.159 178.320667,61.2433333 178.02,61.412 C177.719333,61.5806667 177.481,61.8116667 177.305,62.105 L177.305,62.105 L177.272,62.105 L177.272,59.146 L175.71,59.146 L175.71,67 L177.272,67 Z M184.862,67.154 C186.233333,67.154 187.120667,66.516 187.524,65.24 L187.524,65.24 L186.149,65.24 C186.083,65.4453333 185.930833,65.6195 185.6925,65.7625 C185.454167,65.9055 185.192,65.977 184.906,65.977 C184.444,65.977 184.101167,65.8505 183.8775,65.5975 C183.653833,65.3445 183.534667,64.9906667 183.52,64.536 L183.52,64.536 L187.623,64.536 C187.630333,64.404 187.634,64.3086667 187.634,64.25 C187.634,63.634 187.514833,63.0895 187.2765,62.6165 C187.038167,62.1435 186.71,61.7823333 186.292,61.533 C185.874,61.2836667 185.397333,61.159 184.862,61.159 C184.348667,61.159 183.870167,61.2763333 183.4265,61.511 C182.982833,61.7456667 182.627167,62.1013333 182.3595,62.578 C182.091833,63.0546667 181.958,63.5826667 181.958,64.162 C181.958,64.778 182.09,65.3188333 182.354,65.7845 C182.618,66.2501667 182.971833,66.593 183.4155,66.813 C183.859167,67.033 184.341333,67.1466667 184.862,67.154 Z M186.061,63.546 L183.52,63.546 C183.556667,63.172 183.685,62.8768333 183.905,62.6605 C184.125,62.4441667 184.425667,62.336 184.807,62.336 C185.173667,62.336 185.456,62.4313333 185.654,62.622 C185.852,62.8126667 185.987667,63.1206667 186.061,63.546 L186.061,63.546 Z M193.508,67 L193.508,62.358 L194.586,62.358 L194.586,61.313 L193.508,61.313 L193.508,60.983 C193.508,60.741 193.552,60.5705 193.64,60.4715 C193.728,60.3725 193.885667,60.323 194.113,60.323 C194.281667,60.323 194.468667,60.334 194.674,60.356 L194.674,60.356 L194.674,59.19 C194.256,59.1606667 193.981,59.146 193.849,59.146 C193.247667,59.146 192.780167,59.2981667 192.4465,59.6025 C192.112833,59.9068333 191.946,60.3376667 191.946,60.895 L191.946,60.895 L191.946,61.313 L191.011,61.313 L191.011,62.358 L191.946,62.358 L191.946,67 L193.508,67 Z M196.83,67 L196.83,64.437 C196.83,63.2196667 197.343333,62.611 198.37,62.611 C198.575333,62.611 198.762333,62.6293333 198.931,62.666 L198.931,62.666 L198.931,61.214 C198.835667,61.1773333 198.722,61.159 198.59,61.159 C198.201333,61.159 197.840167,61.269 197.5065,61.489 C197.172833,61.709 196.929,62.0023333 196.775,62.369 L196.775,62.369 L196.753,62.369 L196.753,61.313 L195.268,61.313 L195.268,67 L196.83,67 Z M202.11,67.154 C202.997333,67.154 203.7105,66.8808333 204.2495,66.3345 C204.7885,65.7881667 205.058,65.064 205.058,64.162 C205.058,63.2673333 204.794,62.5431667 204.266,61.9895 C203.738,61.4358333 203.019333,61.159 202.11,61.159 C201.23,61.159 200.5205,61.4303333 199.9815,61.973 C199.4425,62.5156667 199.173,63.2453333 199.173,64.162 C199.173,65.0493333 199.437,65.7698333 199.965,66.3235 C200.493,66.8771667 201.208,67.154 202.11,67.154 Z M202.11,65.977 C201.662667,65.977 201.321667,65.8193333 201.087,65.504 C200.852333,65.1886667 200.735,64.7413333 200.735,64.162 C200.735,63.5753333 200.852333,63.1243333 201.087,62.809 C201.321667,62.4936667 201.659,62.336 202.099,62.336 C202.553667,62.336 202.900167,62.4936667 203.1385,62.809 C203.376833,63.1243333 203.496,63.5753333 203.496,64.162 C203.496,64.7266667 203.3805,65.1703333 203.1495,65.493 C202.9185,65.8156667 202.572,65.977 202.11,65.977 Z M207.632,67 L207.632,64.041 C207.632,63.4543333 207.727333,63.0326667 207.918,62.776 C208.108667,62.5193333 208.416667,62.391 208.842,62.391 C209.208667,62.391 209.467167,62.5046667 209.6175,62.732 C209.767833,62.9593333 209.843,63.3076667 209.843,63.777 L209.843,63.777 L209.843,67 L211.405,67 L211.405,63.458 C211.405,62.6586667 211.241833,62.0756667 210.9155,61.709 C210.589167,61.3423333 210.063,61.159 209.337,61.159 C208.559667,61.159 207.976667,61.4743333 207.588,62.105 L207.588,62.105 L207.555,62.105 L207.555,61.313 L206.07,61.313 L206.07,67 L207.632,67 Z M214.793,67.066 C215.189,67.066 215.497,67.0476667 215.717,67.011 L215.717,67.011 L215.717,65.79 C215.585,65.8193333 215.423667,65.834 215.233,65.834 C214.969,65.834 214.793,65.79 214.705,65.702 C214.617,65.614 214.573,65.438 214.573,65.174 L214.573,65.174 L214.573,62.358 L215.717,62.358 L215.717,61.313 L214.573,61.313 L214.573,59.608 L213.011,59.608 L213.011,61.313 L212.065,61.313 L212.065,62.358 L213.011,62.358 L213.011,65.691 C213.011,66.197 213.157667,66.5526667 213.451,66.758 C213.744333,66.9633333 214.191667,67.066 214.793,67.066 Z" id="The“lens”isatthefront" fill="#000000" fill-rule="nonzero"></path>
        <path id="Line" d="M243.082411,51.5483286 L252.980173,53.3605949 L245.591703,60.1914447 L244.476,56.35 L221.639405,62.9801731 L221.159232,63.1195782 L220.880422,62.159232 L221.360595,62.0198269 L244.197,55.389 L243.082411,51.5483286 Z" fill="#000000" fill-rule="nonzero"></path>
    </g>
</svg>