<?xml version="1.0" encoding="UTF-8"?>
<svg width="536px" height="240px" viewBox="0 0 536 240" version="1.1" xmlns="http://www.w3.org/2000/svg" xmlns:xlink="http://www.w3.org/1999/xlink">
    <title>f</title>
    <g id="f" stroke="none" stroke-width="1" fill="none" fill-rule="evenodd">
        <polygon id="bg" stroke="#979797" fill="#5A5A5A" points="262 28.0877193 266.409302 175.795322 394.499535 233 479.378605 174.30117 499 27.4473684 364.075349 14"></polygon>
        <g transform="translate(262.000000, 29.000000)" fill="#54A92A" stroke="#979797" stroke-width="0.5">
            <polygon id="Path" points="1.33333333 51.2569444 40 61 40 5.71875 0 0"></polygon>
            <polygon id="Path-2" points="41.4413146 6 88 13.8280255 86.0140845 73 41 61.2643312"></polygon>
            <polygon id="Path-3" points="89.0037736 14 146 22.0405797 140.879245 87 87 73.6695652"></polygon>
            <polygon id="Path-4" points="135.314741 148 140 88.6209913 87.0079681 75 85 129.909621"></polygon>
            <polygon id="Path-5" points="41 63 86 74.5974441 84.0147059 129 41 114.028754"></polygon>
            <polygon id="Path-6" points="40 62.8111888 2 53 3.31791908 101.202797 40 114"></polygon>
            <polygon id="Path-7" points="3 102 40 115.05614 40 162 4.10778443 146.161404"></polygon>
            <polygon id="Path-8" points="41.2193878 115 84 130.067524 82.244898 181 41 162.324759"></polygon>
            <polygon id="Path-9" points="84.9958159 131 136 148.947214 132.008368 203 83 181.674487"></polygon>
        </g>
        <g id="R" transform="translate(395.000000, 28.000000)" fill="#CE0E0E" stroke="#979797" stroke-width="0.5">
            <polygon id="Path-10" points="13.0828729 21.5549133 48 13 42.0331492 72.8843931 8 87"></polygon>
            <polygon id="Path-11" points="50.125 13.231746 79 6 72 61.5142857 44 73"></polygon>
            <polygon id="Path-11" points="79.9859155 5.93055556 104 0 97.0140845 51.0451389 73 61"></polygon>
            <polygon id="Path-10" points="8.39306358 89.1768116 42 75 36.5086705 129.802899 4 148"></polygon>
            <polygon id="Path-10" points="4.01204819 149.462209 37 131 31.873494 181.505814 0 204"></polygon>
            <polygon id="Path-10" points="37.9054054 130.378641 66 115 60.2027027 162.84466 33 181"></polygon>
            <polygon id="Path-11" points="43.7402597 74.2115385 72 63 65.8181818 113.557692 38 129"></polygon>
            <polygon id="Path-11" points="73.1313869 62.0596491 97 52 90.649635 99.9438596 67 113"></polygon>
            <polygon id="Path-12" points="65.8208955 114.01049 90 101 83.9552239 145.79021 60 162"></polygon>
        </g>
        <g id="u" transform="translate(263.000000, 15.000000)" fill="#D8D8D8" stroke="#979797" stroke-width="0.5">
            <polygon id="Path-13" stroke-linecap="round" points="89 27.0714286 125.838235 20 179 26.6428571 145.029412 35"></polygon>
            <polygon id="Path-13" stroke-linecap="round" points="41 19.7931034 78.4053333 14 124 19.3793103 87.7013333 27"></polygon>
            <polygon id="Path-13" stroke-linecap="round" points="-2.38079351e-16 13.06 37.3900293 8 75 13.06 39.1495601 19"></polygon>
            <polygon id="Path-13" stroke-linecap="round" points="127 19.4915254 156.758065 14 209 19.2881356 180.123656 26"></polygon>
            <polygon id="Path-13" stroke-linecap="round" points="80 13.2884615 111.544118 8 155 13.2884615 125.882353 19"></polygon>
            <polygon id="Path-13" stroke-linecap="round" points="40 8.18604651 71.6893204 4 108 7.97674419 77.4110032 13"></polygon>
            <polygon id="Path-14" points="74 3.77777778 100.795848 0 138 3.77777778 110.539792 8"></polygon>
            <polygon id="Path-15" points="114 7.88636364 140.149682 4 183 7.88636364 156.630573 13"></polygon>
            <polygon id="Path-16" points="184.848837 8 159 13.28 210.918605 19 235 13.06"></polygon>
        </g>
        <g id="cam" transform="translate(53.000000, 173.000000)" stroke="#979797">
            <polygon id="Path-17" fill="#FF8700" points="-3.11830072e-15 46 69.1376147 21 72 41.7983193"></polygon>
            <polygon id="Path-18" fill="#D8D8D8" points="0 46 48.5636943 9 69 21.4022346"></polygon>
            <polygon id="Path-19" fill="#D8D8D8" points="52 8.29268293 57.1692308 0 66 17"></polygon>
        </g>
        <g id="sides" transform="translate(315.000000, 25.000000)" fill="#000000" fill-rule="nonzero">
            <polygon id="F" points="4.59695817 106 4.59695817 99.217667 11.8631179 101.415708 11.8631179 97.8642315 4.59695817 95.6661908 4.59695817 92.0653885 13 94.6073404 13 90.932549 0 87 0 104.609403"></polygon>
            <path d="M131.378948,111.518031 L131.894342,104.751979 L135.153927,103.02482 C135.833008,102.664996 136.337479,102.660715 136.666087,103.011978 C136.993025,103.36324 137.122505,104.352305 137.056329,105.979171 C136.983142,107.265699 137.036919,108.048504 137.216615,108.327586 L141.2547,106.120662 C140.969324,105.870851 140.905891,104.777051 141.066706,102.839263 C141.280415,100.013969 140.67949,98.7635982 139.257075,99.08815 L139.262943,99.0361034 C140.157875,98.2239958 140.87107,97.2809496 141.403239,96.206965 C141.939238,95.1329803 142.274744,94.0755224 142.407552,93.0345912 C142.608435,91.4731944 142.249255,90.4769358 141.322549,90.0458152 C140.387901,89.6146947 139.027547,89.8469161 137.247444,90.7424796 L128.450239,95.1683222 L127.29697,113.748944 L131.378948,111.518031 Z M132.195998,101.004626 L132.546945,96.8148783 L136.087186,95.0037611 C136.712394,94.6839171 137.205936,94.5955332 137.566983,94.7386097 C137.926926,94.8816861 138.070498,95.2828526 137.998795,95.942109 C137.921832,96.653412 137.694437,97.2791835 137.317196,97.8194237 C136.941154,98.3596639 136.454347,98.7857079 135.855876,99.0975559 L132.195998,101.004626 Z" id="R" transform="translate(134.879259, 101.792306) rotate(2.000000) translate(-134.879259, -101.792306) "></path>
            <path d="M57.8744421,3.80802693 C59.7771508,4.01763236 61.5769818,4.05559482 63.2739349,3.92191432 C64.970888,3.78823382 66.6097857,3.50429009 68.1906282,3.07008315 L75,1.19976606 L71.7432163,0.840993572 L64.789646,2.75091737 C64.063313,2.95041786 63.3490559,3.08034241 62.6468748,3.14069101 C61.9446938,3.20103962 61.2083922,3.18877846 60.4379703,3.10390755 C59.6675483,3.01903664 59.2837319,2.90995908 59.2865211,2.77667485 C59.2893103,2.64339063 59.6645528,2.47406444 60.4122485,2.26869629 L67.3658188,0.358772487 L64.1090351,0 L57.2996632,1.87031709 C54.0525275,2.76220163 54.2441204,3.40810491 57.8744421,3.80802693 Z" id="U"></path>
        </g>
    </g>
</svg>