<?xml version="1.0" encoding="UTF-8"?>
<svg width="536px" height="240px" viewBox="0 0 536 240" version="1.1" xmlns="http://www.w3.org/2000/svg" xmlns:xlink="http://www.w3.org/1999/xlink">
    <title>l</title>
    <g id="l" stroke="none" stroke-width="1" fill="none" fill-rule="evenodd">
        <polyline id="b" stroke="#979797" fill="#0008FF" stroke-linecap="round" stroke-linejoin="round" points="250.5 59.5 373.5 48.5 373.5 195.5 250.5 182.5"></polyline>
        <polygon id="d" stroke="#979797" fill="#FFB400" stroke-linecap="round" stroke-linejoin="round" points="164.5 204 250.5 182.5 373.5 195.5 314.5 226.5"></polygon>
        <polygon id="u" stroke="#979797" fill="#D8D8D8" stroke-linecap="round" stroke-linejoin="round" points="164.5 42 314.5 22 373.5 48.5 250.5 59.5"></polygon>
        <polygon id="r" stroke="#979797" fill="#FF0000" stroke-linecap="round" stroke-linejoin="round" points="314.5 22 314.5 226.5 373.5 195.5 373.5 48.5"></polygon>
        <polygon stroke="#979797" fill="#FF7200" stroke-linecap="round" stroke-linejoin="round" points="164.5 42 250.5 59.5 250.5 182.5 164.5 204"></polygon>
        <g id="cam" transform="translate(239.500000, 115.500000)" stroke="#979797" stroke-linejoin="round">
            <polygon id="Path-52" fill="#D8D8D8" points="5.5 0 39.5 12 5.5 25"></polygon>
            <polygon id="Path-53" fill="#FF7200" points="5.5 0 13 0 39.5 12"></polygon>
            <polygon id="Path-54" fill="#FF0000" points="5.5 25 39.5 12 13.5 25"></polygon>
            <polygon id="Path-55" fill="#D8D8D8" points="4.5 4.5 4.5 21 0 12.5"></polygon>
        </g>
        <g id="lines" transform="translate(164.500000, 29.500000)" stroke="#979797">
            <line x1="150" y1="129.5" x2="209" y2="117" id="Path-43"></line>
            <line x1="150" y1="61" x2="209" y2="68.5" id="Path-44"></line>
            <line x1="174.5" y1="4" x2="174.5" y2="184" id="Path-45"></line>
            <line x1="194" y1="12.5" x2="194" y2="174.5" id="Path-46"></line>
            <polyline id="Path-47" points="150 115 86 112.5 0 120.5"></polyline>
            <polyline id="Path-48" points="150 69.5 86 71 0 66"></polyline>
            <polyline id="Path-49" points="41.5 181 122 157 122 27 43 6.5"></polyline>
            <line x1="92.5" y1="0" x2="150" y2="19" id="Path-50"></line>
            <line x1="91.5" y1="188" x2="150" y2="166" id="Path-51"></line>
            <polyline id="Path-56" points="34 19 34 166 150 181"></polyline>
            <polyline id="Path-57" points="62.5 25.5 62.5 159 150 169"></polyline>
            <line x1="34" y1="19" x2="150" y2="6.5" id="Path-58"></line>
            <line x1="62.5" y1="25.5" x2="150" y2="17.5" id="Path-59"></line>
        </g>
        <path d="M346.09434,131.598792 L346.09434,125.257541 L349.264151,125.112119 C349.924528,125.081823 350.441824,125.308949 350.816038,125.791099 C351.190252,126.270049 351.428721,127.259329 351.531447,128.759342 C351.590147,129.934673 351.72956,130.68994 351.949686,131.025022 L356,130.628128 C355.662474,130.286676 355.457023,129.263028 355.383648,127.557201 C355.251572,125.055454 354.473795,123.631641 353.050314,123.282766 L353.050314,123.236776 C353.872117,122.891636 354.48847,122.344403 354.899371,121.595652 C355.310273,120.852281 355.515723,120.032593 355.515723,119.132552 C355.515723,117.78249 355.027778,116.67822 354.051887,115.808886 C353.075996,114.925077 351.766247,114.440664 350.122642,114.366502 L342,114 L342,132 L346.09434,131.598792 Z M346,122 L346,118 L349.119835,118.051656 C349.670799,118.060778 350.121901,118.227901 350.47314,118.551496 C350.82438,118.873054 351,119.333991 351,119.935837 C351,120.585196 350.848485,121.077819 350.545455,121.415091 C350.242424,121.754208 349.822314,121.929419 349.285124,121.939338 L346,122 Z" id="R" fill="#000000" fill-rule="nonzero"></path>
        <path d="M268.525,42.7193089 C270.446758,42.5208197 272.257826,42.5616932 273.958205,42.8419293 C275.658583,43.1221655 277.294239,43.6136392 278.865172,44.3163505 L285.63186,47.3432319 L282.342471,47.6829772 L275.432488,44.5919972 C274.710708,44.2691299 273.998125,44.0461278 273.29474,43.9229911 C272.591354,43.7998543 271.850594,43.7784709 271.072459,43.8588407 C270.294324,43.9392106 269.903839,44.0745128 269.901005,44.2647473 C269.89817,44.4549818 270.268258,44.7162807 271.011266,45.0486442 L277.921249,48.1396242 L274.63186,48.4793696 L267.865172,45.4524882 C264.638391,44.0090813 264.858333,43.0980215 268.525,42.7193089 Z" id="U" fill="#000000" fill-rule="nonzero"></path>
        <path d="M267.148201,201.498825 C269.907358,201.901876 272.64514,202.024989 275.361545,201.868162 C278.077951,201.711336 280.472253,201.288918 282.544452,200.60091 C284.580082,199.925042 285.367256,199.280971 284.905972,198.668697 C284.444689,198.056423 282.842985,197.550005 280.10086,197.149442 L272.232154,196 L259.177304,200.334456 L267.148201,201.498825 Z M266.445251,199.927557 L273.356642,197.632845 L275.727137,197.979122 C277.255934,198.202445 278.195053,198.469621 278.544494,198.78065 C278.893934,199.091679 278.478087,199.443274 277.296952,199.835432 C276.06904,200.243122 274.777965,200.480843 273.423727,200.548594 C272.06949,200.616345 270.464786,200.514721 268.609616,200.243722 L266.445251,199.927557 Z" id="D" fill="#000000" fill-rule="nonzero"></path>
        <polygon id="L" fill="#000000" fill-rule="nonzero" points="207.866612 132.384451 207.806867 128.330956 215.999137 127.971842 215.925 114.202227 220.575 114.15 220.575 131.705193"></polygon>
    </g>
</svg>