<?xml version="1.0" encoding="UTF-8"?>
<svg width="536px" height="240px" viewBox="0 0 536 240" version="1.1" xmlns="http://www.w3.org/2000/svg" xmlns:xlink="http://www.w3.org/1999/xlink">
    <title>t</title>
    <g id="t" stroke="none" stroke-width="1" fill="none" fill-rule="evenodd">
        <polygon id="b" stroke="#979797" fill="#0008FF" stroke-linejoin="round" points="251 96 251 228 384.5 215.5 375 70.5"></polygon>
        <polygon id="U" stroke="#979797" fill="#FFFFFF" stroke-linejoin="round" points="172.5 44 316 6 375 70.5 251 96"></polygon>
        <polygon id="R" stroke="#979797" fill="#FF0000" stroke-linejoin="round" points="316 6 320.5 182 384.5 215.5 375 70.5"></polygon>
        <polygon id="l" stroke="#979797" fill="#FF7200" stroke-linejoin="round" points="172.5 44 159 201.5 249 228 251 96"></polygon>
        <polygon id="d" stroke="#979797" fill="#FFB400" stroke-linejoin="round" points="159 201.5 320.5 182 384.5 215.5 249 228"></polygon>
        <g id="lines" transform="translate(164.500000, 20.500000)" stroke="#979797" stroke-linecap="round" stroke-linejoin="round">
            <polyline id="Path-20" points="174.5 10.5 181 174 30 191"></polyline>
            <polyline id="Path-21" points="59.5 200 202 185.5 193.5 31.5"></polyline>
            <line x1="153.5" y1="40.5" x2="213.5" y2="95" id="Path-22"></line>
            <line x1="155.5" y1="99.5" x2="216.5" y2="143.5" id="Path-23"></line>
            <polyline id="Path-24" points="151.5 16 38.5 43 30 176.5"></polyline>
            <polyline id="Path-25" points="152 41 64 60 59.5 172.5"></polyline>
            <line x1="125.5" y1="68" x2="126" y2="164.5" id="Path-26"></line>
            <polyline id="Path-27" points="4 72 86.5 116.5 153.5 105"></polyline>
            <polyline id="Path-28" points="0 125 85 160.5 155.5 151"></polyline>
            <line x1="43" y1="175" x2="126" y2="203.5" id="Path-29"></line>
            <line x1="97.5" y1="169" x2="171.5" y2="199" id="Path-30"></line>
            <line x1="125.5" y1="68" x2="52" y2="12" id="Path-31"></line>
            <line x1="153" y1="47.5" x2="99.5" y2="0" id="Path-32"></line>
        </g>
        <g id="cam" transform="translate(237.500000, 107.000000)" stroke="#979797" stroke-linejoin="round">
            <polygon id="Path-33" fill="#D8D8D8" points="0 7.5 15.5 44 24 2.5"></polygon>
            <polygon id="Path-34" fill="#FF9F2C" points="15.5 44 32 7.5 24 2.5"></polygon>
            <polygon id="Path-35" fill="#D8D8D8" points="3 5 19.5 1.5 6.5 0"></polygon>
        </g>
        <path d="M268.522117,51.7741761 C266.559701,52.3078989 265.5765,53.1281025 265.572499,54.2347867 C265.568527,55.341471 266.407976,56.7148666 268.090861,58.3549735 L275.339776,65.4196232 L278.698757,64.5060731 L271.296337,57.2918191 C270.523119,56.5382564 270.123629,55.9275579 270.097867,55.4597235 C270.072105,54.9918891 270.456522,54.6499176 271.25112,54.4338089 C272.045718,54.2177003 272.805374,54.2414283 273.530087,54.5049929 C274.254801,54.7685575 275.015138,55.2882029 275.811097,56.0639292 L283.213518,63.2781832 L286.572499,62.3646331 L279.323585,55.2999834 C275.866848,51.9311152 272.266358,50.7558461 268.522117,51.7741761 Z" id="U" fill="#000000" fill-rule="nonzero"></path>
        <polygon id="L" fill="#000000" fill-rule="nonzero" points="204.727458 145.019577 204.940583 140.821951 213.954635 144.845099 214.692582 130.310822 219.727458 132.557985 218.776385 151.289888"></polygon>
        <path d="M350.238218,123.043617 L350.300667,117.390945 L352.785055,119.315282 C353.302216,119.715313 353.705301,120.25975 353.994581,120.948587 C354.283951,121.637116 354.463507,122.712944 354.53312,124.176165 C354.57047,125.309372 354.673961,126.108221 354.84363,126.572682 L358,129 C357.741512,128.43792 357.590852,127.313392 357.547163,125.626473 C357.461282,123.140217 356.864013,121.280471 355.756548,120.045997 L355.756819,120.002699 C356.399365,120.196199 356.882255,120.063637 357.205614,119.605313 C357.528351,119.147228 357.691132,118.485954 357.694127,117.621309 C357.697841,116.324343 357.322178,114.979955 356.568714,113.586935 C355.81695,112.192301 354.807849,110.993078 353.541,109.989081 L347.322395,105 L347,120.561874 L350.238218,123.043617 Z M350,113.54517 L350.057144,110 L352.523117,111.979454 C352.959443,112.328268 353.315521,112.760099 353.59151,113.274952 C353.867884,113.78958 354.004104,114.324833 353.999906,114.880879 C353.995348,115.480825 353.871192,115.838961 353.627265,115.955327 C353.383108,116.071743 353.046712,115.960646 352.618268,115.621836 L350,113.54517 Z" id="R" fill="#000000" fill-rule="nonzero"></path>
        <path d="M309.570048,158.841175 C307.428341,159.180185 305.797907,158.976485 304.678744,158.230076 C303.559581,157.483666 303,156.219592 303,154.437855 C303,153.457081 303.257649,152.554035 303.772947,151.728716 C304.288245,150.903396 305.020934,150.268427 305.971014,149.823807 C305.26248,149.576344 304.706924,149.177983 304.304348,148.628723 C303.901771,148.079463 303.700483,147.412524 303.700483,146.627906 C303.700483,145.189439 304.203704,144.02276 305.210145,143.127871 C306.216586,142.232982 307.669887,141.63515 309.570048,141.334374 L318,140 L318,157.506801 L309.570048,158.841175 Z M314,147.354826 L314,144 L310.018182,144.611849 C309.4,144.706839 308.909091,144.929199 308.545455,145.278929 C308.181818,145.628659 308,146.07289 308,146.611621 C308,147.134027 308.2,147.511425 308.6,147.743814 C309,147.976203 309.472727,148.05049 310.018182,147.966675 L314,147.354826 Z M314,154.274459 L314,150 L310.337349,150.655619 C308.779116,150.934544 308,151.803793 308,153.263364 C308,154.653432 308.779116,155.209004 310.337349,154.930078 L314,154.274459 Z" id="B" fill="#000000" fill-rule="nonzero"></path>
        <path d="M285.553517,210.943845 C287.753339,210.748559 288.830742,210.351289 288.797816,209.745237 C288.781012,209.130123 287.644704,208.371546 285.376802,207.476302 C283.148922,206.596858 280.736597,205.988114 278.127604,205.656943 C275.50231,205.334937 273.010479,205.319354 270.664336,205.603322 L263.931927,206.418187 L279.198474,211.508003 L285.553517,210.943845 Z M279.009483,209.981037 L271.056735,207.213606 L273.052389,206.986407 C274.339442,206.839879 275.665616,206.83617 277.027658,206.977108 C278.385362,207.120485 279.722764,207.440451 281.043121,207.935175 C282.415769,208.449492 283.086201,208.855724 283.057389,209.1522 C283.032541,209.446448 282.26933,209.665542 280.764785,209.811155 L279.009483,209.981037 Z" id="D" fill="#000000" fill-rule="nonzero"></path>
    </g>
</svg>